<?xml version="1.0" encoding="iso-8859-1"?>
<!-- Generator: Adobe Illustrator 19.0.0, SVG Export Plug-In . SVG Version: 6.00 Build 0)  -->
<svg version="1.1" id="Layer_1" xmlns="http://www.w3.org/2000/svg" xmlns:xlink="http://www.w3.org/1999/xlink" x="0px" y="0px"
	 viewBox="0 0 512 512" style="enable-background:new 0 0 512 512;" xml:space="preserve">
<g>
	<g>
		<path d="M437.333,0H74.667C33.493,0,0,33.493,0,74.667v256c0,41.173,33.493,74.667,74.667,74.667h32v96
			c0,4.139,2.389,7.915,6.144,9.664c1.429,0.661,2.987,1.003,4.523,1.003c2.453,0,4.885-0.853,6.848-2.475l125.013-104.192h188.139
			c41.173,0,74.667-33.493,74.667-74.667v-256C512,33.493,478.507,0,437.333,0z M490.667,330.667
			c0,29.397-23.915,53.333-53.333,53.333h-192c-2.496,0-4.907,0.875-6.827,2.475L128,478.571v-83.904
			c0-5.888-4.779-10.667-10.667-10.667H74.667c-29.419,0-53.333-23.936-53.333-53.333v-256c0-29.397,23.915-53.333,53.333-53.333
			h362.667c29.419,0,53.333,23.936,53.333,53.333V330.667z"/>
	</g>
</g>
<g>
</g>
<g>
</g>
<g>
</g>
<g>
</g>
<g>
</g>
<g>
</g>
<g>
</g>
<g>
</g>
<g>
</g>
<g>
</g>
<g>
</g>
<g>
</g>
<g>
</g>
<g>
</g>
<g>
</g>
</svg>
