<?xml version="1.0" encoding="iso-8859-1"?>
<!-- Generator: Adobe Illustrator 16.0.0, SVG Export Plug-In . SVG Version: 6.00 Build 0)  -->
<!DOCTYPE svg PUBLIC "-//W3C//DTD SVG 1.1//EN" "http://www.w3.org/Graphics/SVG/1.1/DTD/svg11.dtd">
<svg version="1.1" id="Capa_1" xmlns="http://www.w3.org/2000/svg" xmlns:xlink="http://www.w3.org/1999/xlink" x="0px" y="0px"
	 width="278.366px" height="278.365px" viewBox="0 0 278.366 278.365" style="enable-background:new 0 0 278.366 278.365;"
	 xml:space="preserve">
<g>
	<path d="M106.432,9.817C85.62,29.357,33.537,78.957,2.375,114.757c-4.458,5.122-2.435,9.38,4.359,9.38h47.714
		c6.788,0,12.82,5.494,14.003,12.184c6.197,35.068,33.314,133.858,142.167,135.504c0,0,32.99,3.153,64.185-18.177
		c5.608-3.836,4.402-6.094-2.264-4.762c-37.902,7.566-150.483,19.828-110.506-113.046c1.951-6.503,9.295-11.619,16.087-11.517
		l45.174,0.678c6.785,0.103,9.638-4.617,5.194-9.758C207.718,91.2,147.115,32.095,124.269,9.968
		C119.394,5.242,111.389,5.17,106.432,9.817z"/>
</g>
<g>
</g>
<g>
</g>
<g>
</g>
<g>
</g>
<g>
</g>
<g>
</g>
<g>
</g>
<g>
</g>
<g>
</g>
<g>
</g>
<g>
</g>
<g>
</g>
<g>
</g>
<g>
</g>
<g>
</g>
</svg>
